# xmcd
#
# Track frame offsets: 
#        150
#        11744
#        24349
#        35661
#        51873
#        66347
#        84767
#        97795
#        109436
#        122064
#        137194
#        148906
#
# Disc length: 2196 seconds
#
# Revision: 4
# Processed by: cddbd v1.5.2PL0 Copyright (c) Steve Scherf et al.
# Submitted via: ExactAudioCopy v1.3
#
DISCID=a508920c
DTITLE=Marty Robbins - The Many Sides Of Marty Robbins - Disc 1
DYEAR=1993
DGENRE=Country
TTITLE0=The Story Of My Life
TTITLE1=It's Your World
TTITLE2=Begging To You
TTITLE3=One Of These Days
TTITLE4=Don't Worry
TTITLE5=Lord You Gave Me A Mountain
TTITLE6=Devil Woman
TTITLE7=Ribbon Of Darkness
TTITLE8=Tonight Carmen
TTITLE9=I Walk Alone
TTITLE10=Among My Souvenirs
TTITLE11=My Woman, My Woman, My Wife
EXTD=
EXTT0=
EXTT1=
EXTT2=
EXTT3=
EXTT4=
EXTT5=
EXTT6=
EXTT7=
EXTT8=
EXTT9=
EXTT10=
EXTT11=
PLAYORDER=
